# xmcd CD database file
#
# Track frame offsets:
#	150
#	15107
#	30135
#	43675
#	57177
#	65947
#	80017
#	97105
#	114390
#	127195
#	139495
#	152397
#	163935
#	176892
#	189297
#	204102
#	216865
#
# Disc length: 3041 seconds
#
# Revision: 1
# Processed by: cddbd v1.5.1PL0 Copyright (c) Steve Scherf et al.
# Submitted via: CDex 1.51
#
DISCID=ea0bdf11
DTITLE=Various Artist - You'll Be Welcome On Paradise Isle
DYEAR=1900
DGENRE=Hawaiian
TTITLE0=You'll Be Welcome On Paradise Isle
TTITLE1=Singing Bamboo
TTITLE2=Lehua Nani (Flaming Flower)
TTITLE3=May-day Is Lei-day In Hawaii
TTITLE4=Moana Chimes
TTITLE5=For You A Lei
TTITLE6=Sweet Hawaiian Memories
TTITLE7=Where I Have Found My Love
TTITLE8=At Eleven-thirty Saturday-night
TTITLE9=Kula Lu
TTITLE10=An Island Serenade
TTITLE11=Hawaii Sing To Me
TTITLE12=Silver Moon And Goldens Sands
TTITLE13=Sweet Little Sweetheart
TTITLE14=Hula Girl
TTITLE15=In A Little Hula Heaven
TTITLE16=Napua
EXTD=
EXTT0=
EXTT1=
EXTT2=
EXTT3=
EXTT4=
EXTT5=
EXTT6=
EXTT7=
EXTT8=
EXTT9=
EXTT10=
EXTT11=
EXTT12=
EXTT13=
EXTT14=
EXTT15=
EXTT16=
PLAYORDER=
